<mxfile host="Electron" agent="Mozilla/5.0 (Windows NT 10.0; Win64; x64) AppleWebKit/537.36 (KHTML, like Gecko) draw.io/28.1.2 Chrome/138.0.7204.243 Electron/37.4.0 Safari/537.36" version="28.1.2">
  <diagram name="Seite-1" id="3mMNCb3rkPgmzJ9fItBv">
    <mxGraphModel dx="1042" dy="722" grid="1" gridSize="10" guides="1" tooltips="1" connect="1" arrows="1" fold="1" page="1" pageScale="1" pageWidth="827" pageHeight="1169" math="0" shadow="0">
      <root>
        <mxCell id="0" />
        <mxCell id="1" parent="0" />
        <mxCell id="0xdmGn5bPiA538urIHkB-36" value="" style="rounded=0;whiteSpace=wrap;html=1;glass=0;fillColor=#b0e3e6;strokeColor=#0e8088;opacity=40;" parent="1" vertex="1">
          <mxGeometry x="170" y="170" width="500" height="690" as="geometry" />
        </mxCell>
        <mxCell id="0xdmGn5bPiA538urIHkB-5" value="" style="rounded=1;whiteSpace=wrap;html=1;glass=0;" parent="1" vertex="1">
          <mxGeometry x="181" y="180" width="480" height="161" as="geometry" />
        </mxCell>
        <mxCell id="0xdmGn5bPiA538urIHkB-6" value="&lt;font style=&quot;font-size: 48px;&quot;&gt;1&lt;/font&gt;" style="rounded=1;whiteSpace=wrap;html=1;" parent="1" vertex="1">
          <mxGeometry x="181" y="341" width="160" height="101" as="geometry" />
        </mxCell>
        <mxCell id="0xdmGn5bPiA538urIHkB-12" value="&lt;span style=&quot;font-size: 48px;&quot;&gt;3&lt;/span&gt;" style="rounded=1;whiteSpace=wrap;html=1;" parent="1" vertex="1">
          <mxGeometry x="501" y="341" width="160" height="101" as="geometry" />
        </mxCell>
        <mxCell id="0xdmGn5bPiA538urIHkB-28" value="&lt;span style=&quot;font-size: 48px;&quot;&gt;4&lt;/span&gt;" style="rounded=1;whiteSpace=wrap;html=1;" parent="1" vertex="1">
          <mxGeometry x="181" y="442" width="160" height="101" as="geometry" />
        </mxCell>
        <mxCell id="0xdmGn5bPiA538urIHkB-29" value="&lt;span style=&quot;font-size: 48px;&quot;&gt;6&lt;/span&gt;" style="rounded=1;whiteSpace=wrap;html=1;" parent="1" vertex="1">
          <mxGeometry x="501" y="442" width="160" height="101" as="geometry" />
        </mxCell>
        <mxCell id="0xdmGn5bPiA538urIHkB-30" value="&lt;span style=&quot;font-size: 48px;&quot;&gt;7&lt;/span&gt;" style="rounded=1;whiteSpace=wrap;html=1;" parent="1" vertex="1">
          <mxGeometry x="181" y="543" width="160" height="101" as="geometry" />
        </mxCell>
        <mxCell id="0xdmGn5bPiA538urIHkB-31" value="&lt;span style=&quot;font-size: 48px;&quot;&gt;9&lt;/span&gt;" style="rounded=1;whiteSpace=wrap;html=1;" parent="1" vertex="1">
          <mxGeometry x="501" y="543" width="160" height="101" as="geometry" />
        </mxCell>
        <mxCell id="0xdmGn5bPiA538urIHkB-32" value="&lt;font style=&quot;font-size: 48px;&quot;&gt;*&lt;/font&gt;" style="rounded=1;whiteSpace=wrap;html=1;" parent="1" vertex="1">
          <mxGeometry x="181" y="745" width="160" height="101" as="geometry" />
        </mxCell>
        <mxCell id="0xdmGn5bPiA538urIHkB-33" value="&lt;span style=&quot;font-size: 48px;&quot;&gt;=&lt;/span&gt;" style="rounded=1;whiteSpace=wrap;html=1;" parent="1" vertex="1">
          <mxGeometry x="501" y="745" width="160" height="101" as="geometry" />
        </mxCell>
        <mxCell id="0xdmGn5bPiA538urIHkB-37" value="&lt;span style=&quot;font-size: 48px;&quot;&gt;2&lt;/span&gt;" style="rounded=1;whiteSpace=wrap;html=1;" parent="1" vertex="1">
          <mxGeometry x="341" y="341" width="160" height="101" as="geometry" />
        </mxCell>
        <mxCell id="0xdmGn5bPiA538urIHkB-38" value="&lt;span style=&quot;font-size: 48px;&quot;&gt;5&lt;/span&gt;" style="rounded=1;whiteSpace=wrap;html=1;" parent="1" vertex="1">
          <mxGeometry x="341" y="442" width="160" height="101" as="geometry" />
        </mxCell>
        <mxCell id="0xdmGn5bPiA538urIHkB-39" value="&lt;span style=&quot;font-size: 48px;&quot;&gt;8&lt;/span&gt;" style="rounded=1;whiteSpace=wrap;html=1;" parent="1" vertex="1">
          <mxGeometry x="341" y="543" width="160" height="101" as="geometry" />
        </mxCell>
        <mxCell id="0xdmGn5bPiA538urIHkB-40" value="&lt;span style=&quot;font-size: 48px;&quot;&gt;/&lt;/span&gt;" style="rounded=1;whiteSpace=wrap;html=1;" parent="1" vertex="1">
          <mxGeometry x="341" y="745" width="160" height="101" as="geometry" />
        </mxCell>
        <mxCell id="0xdmGn5bPiA538urIHkB-41" value="&lt;span style=&quot;font-size: 48px; text-align: center;&quot;&gt;342+112&lt;/span&gt;" style="rounded=1;whiteSpace=wrap;html=1;align=right;" parent="1" vertex="1">
          <mxGeometry x="221" y="217" width="399" height="80" as="geometry" />
        </mxCell>
        <mxCell id="NYsQVcn6g2_lbN8HLe3q-1" value="&lt;span style=&quot;font-size: 48px;&quot;&gt;+&lt;/span&gt;" style="rounded=1;whiteSpace=wrap;html=1;" vertex="1" parent="1">
          <mxGeometry x="181" y="644" width="160" height="101" as="geometry" />
        </mxCell>
        <mxCell id="NYsQVcn6g2_lbN8HLe3q-2" value="&lt;span style=&quot;font-size: 48px;&quot;&gt;9&lt;/span&gt;" style="rounded=1;whiteSpace=wrap;html=1;" vertex="1" parent="1">
          <mxGeometry x="501" y="644" width="160" height="101" as="geometry" />
        </mxCell>
        <mxCell id="NYsQVcn6g2_lbN8HLe3q-3" value="&lt;span style=&quot;font-size: 48px;&quot;&gt;-&lt;/span&gt;" style="rounded=1;whiteSpace=wrap;html=1;" vertex="1" parent="1">
          <mxGeometry x="341" y="644" width="160" height="101" as="geometry" />
        </mxCell>
      </root>
    </mxGraphModel>
  </diagram>
</mxfile>
